 <svg version="1.0" xmlns="http://www.w3.org/2000/svg"  width="150.000000pt" height="150.000000pt" viewBox="0 0 1500.000000 1500.000000"  preserveAspectRatio="xMidYMid meet">  <g transform="translate(0.000000,1500.000000) scale(0.100000,-0.100000)" fill="#000000" stroke="none"> <path d="M5394 11636 c-8 -33 2 -46 32 -46 14 0 38 -7 54 -15 61 -32 60 -16 60 -674 0 -390 -4 -618 -11 -650 -14 -64 -45 -111 -92 -136 l-37 -20 -42 23 c-26 13 -54 40 -71 67 -62 98 -131 122 -188 66 -65 -65 -17 -167 99 -212 47 -19 77 -23 167 -23 170 0 260 37 336 137 74 99 73 90 79 762 4 460 8 605 18 622 15 28 46 45 92 53 31 5 35 9 35 35 l0 30 -262 3 -263 2 -6 -24z"></path> <path d="M6078 11650 c-10 -6 -18 -19 -18 -30 0 -18 6 -22 62 -34 15 -4 39 -19 53 -34 l25 -27 0 -481 c0 -555 6 -522 -95 -545 -53 -12 -76 -34 -60 -59 10 -16 622 -14 628 3 9 26 -13 47 -52 47 -20 0 -60 7 -88 15 -45 13 -54 21 -72 59 -20 40 -21 58 -19 217 l3 174 140 7 c284 16 416 72 485 210 26 54 30 71 29 142 -1 175 -92 277 -287 323 -84 20 -706 30 -734 13z m647 -111 c93 -47 132 -146 112 -279 -12 -84 -46 -133 -114 -167 -53 -26 -68 -28 -168 -28 l-110 0 -3 239 c-2 178 1 242 10 253 10 13 33 15 118 11 86 -4 114 -9 155 -29z"></path> <path d="M7223 11649 c-25 -25 -15 -48 26 -59 57 -15 82 -39 92 -90 11 -59 11 -852 0 -910 -11 -55 -45 -86 -105 -95 -45 -7 -66 -30 -51 -55 4 -6 143 -10 392 -10 413 0 430 2 573 56 166 62 297 202 346 369 24 81 24 248 0 330 -51 175 -162 307 -326 387 -150 74 -192 80 -590 85 -271 4 -348 2 -357 -8z m698 -104 c156 -41 251 -140 306 -320 25 -86 25 -325 -1 -410 -50 -164 -167 -263 -335 -284 -115 -15 -216 5 -258 51 -52 55 -53 66 -53 522 0 373 2 426 16 440 22 22 242 22 325 1z"></path> <path d="M1828 9473 c-9 -2 -27 -21 -40 -41 -21 -33 -24 -53 -28 -192 l-5 -154 -50 -18 c-27 -10 -56 -18 -63 -18 -8 0 -30 -7 -50 -16 -21 -8 -50 -21 -67 -28 -172 -72 -386 -208 -491 -311 -57 -57 -164 -177 -214 -242 -45 -57 -164 -302 -203 -415 -6 -16 -26 -18 -219 -18 -260 0 -305 -9 -361 -71 l-37 -42 0 -354 c0 -319 2 -356 17 -381 21 -32 37 -47 78 -69 24 -13 71 -16 264 -19 178 -2 237 -6 246 -16 6 -7 19 -33 29 -58 36 -90 102 -225 150 -304 102 -170 289 -361 458 -466 112 -70 284 -160 305 -160 7 0 21 -4 31 -9 23 -13 117 -41 136 -41 8 0 22 -7 30 -16 13 -13 16 -42 16 -156 0 -155 9 -188 62 -233 l30 -25 347 0 c332 0 350 1 373 20 56 44 58 56 58 447 0 308 2 362 16 381 15 22 16 22 327 22 333 0 329 0 380 51 23 24 47 87 47 126 0 38 -28 99 -56 125 -51 44 -81 48 -395 48 -285 0 -299 1 -309 19 -6 13 -10 246 -10 688 0 589 2 671 16 691 15 22 16 22 319 22 167 0 314 4 327 9 33 12 77 59 95 101 33 77 -4 182 -79 221 -34 18 -60 19 -342 19 -304 0 -305 0 -320 22 -14 19 -16 75 -16 403 0 362 -1 382 -20 413 -11 18 -32 37 -46 42 -25 10 -701 12 -736 3z"></path> <path d="M3864 9468 c-12 -5 -31 -27 -43 -48 -20 -37 -21 -49 -21 -406 0 -203 4 -374 8 -381 5 -8 95 -12 322 -15 357 -3 365 -5 426 -85 73 -96 40 -252 -64 -301 -32 -15 -81 -18 -362 -22 l-325 -5 -3 -674 c-1 -371 2 -679 6 -683 4 -4 152 -9 328 -11 305 -2 321 -3 359 -24 51 -27 82 -70 95 -131 20 -91 -15 -178 -90 -225 -34 -21 -44 -22 -360 -25 -238 -2 -326 -6 -332 -15 -4 -7 -8 -167 -8 -355 0 -378 1 -386 62 -437 l30 -25 352 0 352 0 26 28 c46 49 52 70 55 212 5 164 7 177 36 185 64 17 135 40 164 52 17 7 34 13 38 13 11 0 177 85 239 122 268 164 501 429 606 693 13 33 27 65 31 70 4 6 12 29 18 52 8 29 18 44 34 49 12 4 108 6 212 6 233 -2 283 7 339 58 l41 39 3 359 3 360 -33 42 c-55 71 -94 80 -348 80 -118 0 -221 4 -229 9 -7 5 -22 34 -32 65 -21 60 -83 194 -121 261 -104 180 -277 364 -453 482 -110 73 -322 183 -353 183 -5 0 -23 7 -38 15 -16 8 -37 15 -46 15 -9 0 -37 9 -61 19 l-45 19 -4 149 c-4 163 -17 210 -64 232 -33 15 -719 14 -750 -1z"></path> <path d="M10615 7286 c-92 -41 -106 -159 -25 -213 59 -40 126 -26 167 36 28 42 29 86 3 128 -31 51 -93 72 -145 49z"></path> <path d="M6770 7269 c-63 -10 -129 -22 -147 -24 -54 -9 -51 -65 4 -65 35 0 79 -26 89 -52 4 -13 9 -234 11 -493 5 -557 3 -569 -82 -589 -16 -4 -36 -12 -42 -18 -18 -15 -16 -45 3 -52 9 -3 119 -6 245 -6 203 0 230 2 236 16 10 26 -10 48 -55 59 -81 20 -76 -15 -82 650 l-5 590 -30 2 c-16 1 -82 -7 -145 -18z"></path> <path d="M13060 7283 c-14 -2 -78 -13 -143 -23 -64 -11 -122 -22 -127 -25 -6 -3 -10 -15 -10 -25 0 -15 10 -21 42 -27 27 -4 53 -17 70 -34 l28 -27 0 -507 c0 -499 0 -507 -21 -533 -11 -15 -37 -32 -56 -37 -40 -11 -59 -34 -50 -59 6 -14 33 -16 240 -16 187 0 237 3 246 14 19 23 1 46 -47 59 -81 22 -77 -14 -80 641 -2 400 -6 584 -14 593 -10 13 -29 14 -78 6z"></path> <path d="M9228 6968 c-49 -64 -91 -99 -166 -140 -95 -51 -97 -87 -4 -98 l47 -5 5 -320 c5 -298 6 -322 25 -350 47 -71 99 -95 210 -95 94 0 150 21 183 68 26 35 27 45 8 61 -11 9 -21 7 -48 -9 -66 -40 -121 -20 -143 53 -20 66 -22 566 -3 585 7 7 39 12 76 12 75 0 102 12 102 45 0 33 -27 45 -102 45 -37 0 -69 5 -76 12 -7 7 -12 40 -12 79 0 86 -5 99 -40 99 -21 0 -37 -10 -62 -42z"></path> <path d="M7490 6811 c-65 -21 -90 -34 -150 -81 -61 -47 -84 -75 -115 -138 -57 -116 -59 -288 -5 -399 42 -85 114 -157 197 -196 66 -31 73 -32 198 -32 121 0 134 2 189 28 71 33 154 94 162 120 6 20 -11 47 -32 47 -7 0 -41 -18 -76 -39 -214 -133 -406 -35 -433 220 -12 115 -27 109 271 109 157 0 263 4 275 10 14 8 19 21 19 51 0 142 -90 264 -225 305 -65 19 -206 17 -275 -5z m200 -86 c59 -31 95 -120 64 -163 -14 -21 -22 -22 -155 -22 -115 0 -141 3 -145 15 -10 24 4 60 38 106 56 73 133 98 198 64z"></path> <path d="M8425 6811 c-124 -44 -187 -92 -240 -182 -46 -79 -65 -148 -65 -238 0 -129 49 -243 136 -320 86 -76 168 -104 299 -104 112 0 185 21 268 76 67 46 80 72 48 101 -18 17 -21 16 -58 -6 -86 -53 -163 -72 -255 -61 -56 7 -118 54 -147 112 -31 61 -54 186 -48 261 15 176 77 276 181 287 58 7 85 -10 130 -80 63 -98 113 -126 178 -100 28 11 40 24 48 49 30 90 -38 169 -176 207 -82 23 -232 22 -299 -2z"></path> <path d="M9820 6815 c-30 -7 -88 -18 -128 -25 -86 -16 -107 -33 -73 -61 13 -11 34 -19 47 -19 15 0 33 -13 51 -37 l28 -36 0 -273 c0 -308 2 -300 -77 -319 -49 -12 -68 -36 -49 -59 12 -14 47 -16 262 -16 241 0 248 1 254 20 10 30 -9 47 -61 53 -28 3 -54 13 -70 28 -24 22 -24 25 -24 193 0 136 4 186 20 243 21 80 60 148 89 158 18 5 33 0 105 -42 25 -15 66 -16 100 -3 49 18 73 111 40 158 -65 94 -253 57 -339 -67 -34 -49 -50 -42 -60 26 -15 98 -18 100 -115 78z"></path> <path d="M10568 6801 c-81 -14 -153 -32 -160 -38 -17 -18 2 -35 55 -48 31 -8 46 -19 62 -45 19 -33 20 -52 20 -290 0 -237 -1 -257 -20 -289 -15 -25 -32 -37 -64 -47 -50 -15 -64 -30 -50 -56 9 -17 28 -18 243 -18 195 0 236 2 246 15 20 24 5 43 -47 57 -82 23 -83 26 -83 413 0 182 -3 340 -6 353 -8 27 -7 27 -196 -7z"></path> <path d="M11292 6806 c-75 -28 -133 -65 -179 -115 -159 -170 -147 -471 25 -622 91 -80 238 -119 371 -100 124 19 266 97 259 144 -6 42 -31 43 -113 3 -70 -34 -86 -38 -161 -39 -73 -1 -86 2 -123 26 -84 56 -121 152 -121 317 0 147 30 236 96 286 39 30 110 42 142 25 12 -6 49 -47 82 -91 60 -78 85 -96 135 -92 84 6 113 116 48 184 -62 66 -161 98 -298 97 -79 0 -113 -5 -163 -23z"></path> <path d="M12078 6810 c-98 -31 -148 -81 -148 -151 0 -37 56 -99 89 -99 48 0 121 62 121 103 0 9 15 32 34 51 29 31 39 36 80 36 58 0 78 -10 106 -54 17 -29 20 -47 18 -112 l-3 -77 -115 -48 c-180 -75 -240 -110 -302 -171 -61 -59 -65 -71 -59 -162 3 -50 40 -107 87 -137 55 -34 170 -38 247 -9 54 20 147 97 147 121 0 5 7 9 15 9 8 0 15 -9 15 -20 0 -34 36 -94 68 -112 38 -23 132 -24 177 -2 50 24 82 61 68 82 -6 9 -23 18 -39 18 -16 1 -36 2 -45 3 -31 2 -38 53 -41 311 -3 233 -5 259 -24 300 -49 105 -130 141 -318 139 -86 -1 -137 -6 -178 -19z m302 -494 c0 -80 -3 -98 -23 -127 -40 -60 -133 -95 -192 -73 -9 4 -25 24 -36 46 -19 38 -19 39 -1 82 11 24 35 55 53 69 48 36 181 107 191 101 4 -3 8 -47 8 -98z"></path> </g> </svg> 